<svg width="24" height="18" viewBox="0 0 24 18" fill="none" xmlns="http://www.w3.org/2000/svg">
<path d="M23.2935 1.06657C21.8389 0.449183 20.3831 0.214294 18.9281 0.214294C14.3092 0.213915 9.69075 2.57987 5.07187 2.57987C3.9135 2.57987 2.75587 2.43113 1.5975 2.05925C1.46737 2.01751 1.33687 1.99778 1.20937 1.99778C0.564 1.99778 0 2.50322 0 3.20485V15.2437C0 15.723 0.271125 16.1772 0.7065 16.3616C2.16112 16.9794 3.61687 17.2143 5.07187 17.2143C9.69075 17.2143 14.3096 14.8483 18.9285 14.8483C20.0869 14.8483 21.2445 14.9971 22.4029 15.369C22.533 15.4107 22.6635 15.4304 22.791 15.4304C23.4364 15.4304 24.0004 14.925 24.0004 14.2234V2.18485C24 1.70521 23.7289 1.25137 23.2935 1.06657ZM1.8 4.01729C2.5545 4.20854 3.342 4.30454 4.152 4.35615C3.9315 5.47139 2.9625 6.31191 1.8 6.31191V4.01729ZM1.8 14.832V13.0189C3.08887 13.0189 4.13175 14.0537 4.18912 15.3488C3.34425 15.2802 2.5545 15.1094 1.8 14.832ZM12 12.3572C10.3429 12.3572 9 10.7258 9 8.7143C9 6.70238 10.3432 5.07144 12 5.07144C13.6567 5.07144 15 6.70238 15 8.7143C15 10.7266 13.6564 12.3572 12 12.3572ZM22.2 13.4113C21.543 13.2447 20.8609 13.1514 20.163 13.091C20.3831 12.1014 21.1942 11.3501 22.2 11.221V13.4113ZM22.2 4.45177C21.0416 4.3034 20.1427 3.32476 20.1071 2.11617C20.8399 2.19851 21.5355 2.35258 22.2 2.59657V4.45177Z" fill="#0071FB"/>
</svg>
