<svg width="25" height="20" viewBox="0 0 25 20" fill="none" xmlns="http://www.w3.org/2000/svg">
<path fill-rule="evenodd" clip-rule="evenodd" d="M17.2254 5.29107C17.2254 8.22817 15.0968 10.5833 12.4421 10.5833C9.78742 10.5833 7.6588 8.22817 7.6588 5.29107C7.6588 2.35284 9.78742 0 12.4421 0C15.0968 0 17.2254 2.35284 17.2254 5.29107ZM12.4421 20C8.54302 20 5.21375 19.32 5.21375 16.6002C5.21375 13.8792 8.52165 13.1745 12.4421 13.1745C16.3412 13.1745 19.6704 13.8545 19.6704 16.5754C19.6704 19.2953 16.3625 20 12.4421 20ZM19.2694 5.38653C19.2694 6.88379 18.8634 8.2786 18.1512 9.43814C18.0779 9.55747 18.143 9.71845 18.2723 9.74322C18.4503 9.77699 18.6345 9.79613 18.8217 9.80175C20.6888 9.85579 22.3647 8.52627 22.8276 6.52467C23.5134 3.55154 21.4998 0.88237 18.9357 0.88237C18.6569 0.88237 18.3903 0.915017 18.1308 0.973556C18.0952 0.982562 18.0576 1.00057 18.0372 1.03547C18.0128 1.07825 18.0311 1.13567 18.0555 1.17282C18.8258 2.36725 19.2694 3.82398 19.2694 5.38653ZM22.3617 11.8907C23.6162 12.162 24.4414 12.7159 24.7833 13.5208C25.0723 14.1816 25.0723 14.9483 24.7833 15.608C24.2603 16.8564 22.5743 17.2572 21.919 17.3608C21.7837 17.3833 21.6748 17.2538 21.6891 17.1041C22.0238 13.6446 19.361 12.0044 18.6722 11.6273C18.6427 11.6104 18.6366 11.5845 18.6396 11.5687C18.6417 11.5575 18.6539 11.5395 18.6763 11.5361C20.1669 11.5057 21.7695 11.7309 22.3617 11.8907ZM6.17858 9.80164C6.3658 9.79601 6.54895 9.778 6.72803 9.7431C6.85725 9.71833 6.92238 9.55735 6.84911 9.43802C6.13686 8.27849 5.73088 6.88367 5.73088 5.38641C5.73088 3.82386 6.17451 2.36713 6.94476 1.1727C6.96918 1.13555 6.98648 1.07813 6.96308 1.03536C6.94273 1.00158 6.90406 0.982445 6.86946 0.973439C6.60898 0.9149 6.3424 0.882253 6.0636 0.882253C3.49949 0.882253 1.48586 3.55143 2.17267 6.52455C2.63563 8.52615 4.31146 9.85567 6.17858 9.80164ZM6.36016 11.5681C6.36321 11.585 6.3571 11.6097 6.32861 11.6277C5.63875 12.0049 2.97594 13.6451 3.3107 17.1034C3.32495 17.2543 3.21709 17.3826 3.08176 17.3612C2.42649 17.2577 0.740488 16.8569 0.217491 15.6084C-0.0724971 14.9476 -0.0724971 14.1821 0.217491 13.5213C0.559372 12.7163 1.38355 12.1625 2.63813 11.89C3.23134 11.7313 4.83289 11.5062 6.32454 11.5366C6.34693 11.5399 6.35812 11.5579 6.36016 11.5681Z" fill="white"/>
</svg>
