<svg width="25" height="28" viewBox="0 0 25 28" fill="none" xmlns="http://www.w3.org/2000/svg">
<path fill-rule="evenodd" clip-rule="evenodd" d="M7.86456 20.146H15.6717C16.2601 20.146 16.7481 19.67 16.7481 19.096C16.7481 18.522 16.2601 18.06 15.6717 18.06H7.86456C7.27616 18.06 6.78821 18.522 6.78821 19.096C6.78821 19.67 7.27616 20.146 7.86456 20.146ZM12.7153 11.06H7.86456C7.27616 11.06 6.78821 11.536 6.78821 12.11C6.78821 12.684 7.27616 13.146 7.86456 13.146H12.7153C13.3037 13.146 13.7917 12.684 13.7917 12.11C13.7917 11.536 13.3037 11.06 12.7153 11.06ZM22.9572 9.83586C23.2945 9.83209 23.6618 9.828 23.9956 9.828C24.3543 9.828 24.6414 10.108 24.6414 10.458V21.714C24.6414 25.186 21.7567 28 18.1976 28H6.77387C3.0425 28 0 25.046 0 21.406V6.314C0 2.842 2.89898 0 6.47249 0H14.1361C14.5093 0 14.7963 0.294 14.7963 0.644V5.152C14.7963 7.714 16.9634 9.814 19.5897 9.828C20.2031 9.828 20.7439 9.83243 21.2172 9.8363C21.5854 9.83932 21.9128 9.842 22.2016 9.842C22.4059 9.842 22.6707 9.83905 22.9572 9.83586ZM24.287 8.1041C23.0602 8.10847 21.6139 8.1041 20.5736 8.0939C18.9228 8.0939 17.5631 6.76749 17.5631 5.15715V1.31914C17.5631 0.691601 18.3437 0.380017 18.79 0.832833C19.5976 1.65201 20.7074 2.77799 21.8121 3.89889C22.9145 5.0173 24.0118 6.13065 24.799 6.9291C25.2348 7.37027 24.9154 8.10264 24.287 8.1041Z" fill="white"/>
</svg>
