<svg width="26" height="27" viewBox="0 0 26 27" fill="none" xmlns="http://www.w3.org/2000/svg">
<path fill-rule="evenodd" clip-rule="evenodd" d="M23.8698 15.44C24.3467 15.6933 24.7146 16.0933 24.9735 16.4933C25.4777 17.32 25.4368 18.3333 24.9463 19.2267L23.9924 20.8267C23.4883 21.68 22.5481 22.2133 21.5806 22.2133C21.1037 22.2133 20.5723 22.08 20.1362 21.8133C19.782 21.5867 19.3732 21.5067 18.9371 21.5067C17.5882 21.5067 16.4572 22.6133 16.4163 23.9333C16.4163 25.4667 15.1627 26.6667 13.5957 26.6667H11.7426C10.1619 26.6667 8.90834 25.4667 8.90834 23.9333C8.88109 22.6133 7.75012 21.5067 6.40114 21.5067C5.95147 21.5067 5.54269 21.5867 5.20204 21.8133C4.766 22.08 4.22096 22.2133 3.75767 22.2133C2.77659 22.2133 1.83639 21.68 1.33223 20.8267L0.392026 19.2267C-0.112139 18.36 -0.139391 17.32 0.364774 16.4933C0.582792 16.0933 0.991575 15.6933 1.45486 15.44C1.83639 15.2533 2.08166 14.9467 2.31331 14.5867C2.99461 13.44 2.58583 11.9333 1.42761 11.2533C0.0786262 10.4933 -0.357409 8.8 0.419279 7.48L1.33223 5.90667C2.12254 4.58667 3.81218 4.12 5.17479 4.89333C6.36026 5.53333 7.90001 5.10667 8.59494 3.97333C8.81296 3.6 8.93559 3.2 8.90834 2.8C8.88109 2.28 9.03097 1.78667 9.28987 1.38667C9.79403 0.56 10.707 0.0266667 11.7017 0H13.623C14.6313 0 15.5442 0.56 16.0484 1.38667C16.2937 1.78667 16.4572 2.28 16.4163 2.8C16.3891 3.2 16.5117 3.6 16.7297 3.97333C17.4247 5.10667 18.9644 5.53333 20.1635 4.89333C21.5125 4.12 23.2157 4.58667 23.9924 5.90667L24.9054 7.48C25.6957 8.8 25.2597 10.4933 23.897 11.2533C22.7388 11.9333 22.33 13.44 23.025 14.5867C23.243 14.9467 23.4883 15.2533 23.8698 15.44ZM8.81296 13.3467C8.81296 15.44 10.5435 17.1067 12.6828 17.1067C14.8221 17.1067 16.5117 15.44 16.5117 13.3467C16.5117 11.2533 14.8221 9.57333 12.6828 9.57333C10.5435 9.57333 8.81296 11.2533 8.81296 13.3467Z" fill="white"/>
</svg>
