<svg width="13" height="13" viewBox="0 0 13 13" fill="none" xmlns="http://www.w3.org/2000/svg">
<path d="M5.88738 9.00833C5.85596 8.97773 5.72163 8.86216 5.61113 8.75452C4.91617 8.12341 3.77867 6.47704 3.43146 5.61533C3.37567 5.48446 3.25758 5.15361 3.25 4.97683C3.25 4.80745 3.289 4.64598 3.36808 4.49189C3.47858 4.29982 3.65246 4.14573 3.85775 4.0613C4.00021 4.00695 4.4265 3.92252 4.43408 3.92252C4.90046 3.83809 5.65825 3.79166 6.49567 3.79166C7.29354 3.79166 8.02046 3.83809 8.49388 3.90722C8.50146 3.91513 9.03121 3.99956 9.21267 4.09191C9.54417 4.26129 9.75 4.59215 9.75 4.94623V4.97683C9.74188 5.20743 9.53604 5.69237 9.52846 5.69237C9.18071 6.50764 8.099 8.11602 7.38021 8.76243C7.38021 8.76243 7.1955 8.94448 7.08013 9.02363C6.91438 9.14711 6.70908 9.20832 6.50379 9.20832C6.27467 9.20832 6.06125 9.1392 5.88738 9.00833" fill="#232323"/>
</svg>
