<svg width="26" height="27" viewBox="0 0 26 27" fill="none" xmlns="http://www.w3.org/2000/svg">
<path d="M9.17987 25.0311V20.9542C9.17987 19.9134 10.0297 19.0697 11.0781 19.0697H14.9103C15.4137 19.0697 15.8966 19.2683 16.2525 19.6217C16.6085 19.9751 16.8085 20.4544 16.8085 20.9542V25.0311C16.8053 25.4638 16.9762 25.8798 17.2833 26.1869C17.5904 26.494 18.0082 26.6667 18.4441 26.6667H21.0586C22.2797 26.6698 23.4518 26.1905 24.3164 25.3344C25.1809 24.4784 25.6668 23.316 25.6668 22.1038V10.4891C25.6668 9.50995 25.2296 8.58112 24.473 7.95289L15.5789 0.901159C14.0317 -0.335251 11.815 -0.295331 10.314 0.995972L1.62285 7.95289C0.830484 8.5626 0.356899 9.49418 0.333496 10.4891V22.0919C0.333496 24.6185 2.39667 26.6667 4.94173 26.6667H7.49655C8.4018 26.6667 9.13749 25.9416 9.14405 25.043L9.17987 25.0311Z" fill="white"/>
</svg>
