<svg width="28" height="28" viewBox="0 0 28 28" fill="none" xmlns="http://www.w3.org/2000/svg">
<path fill-rule="evenodd" clip-rule="evenodd" d="M4.05317 0.666656H8.55984C10.4398 0.666656 11.9465 2.19999 11.9465 4.08132V8.62666C11.9465 10.52 10.4398 12.04 8.55984 12.04H4.05317C2.1865 12.04 0.666504 10.52 0.666504 8.62666V4.08132C0.666504 2.19999 2.1865 0.666656 4.05317 0.666656ZM4.05317 15.9596H8.55984C10.4398 15.9596 11.9465 17.4809 11.9465 19.3743V23.9196C11.9465 25.7996 10.4398 27.3329 8.55984 27.3329H4.05317C2.1865 27.3329 0.666504 25.7996 0.666504 23.9196V19.3743C0.666504 17.4809 2.1865 15.9596 4.05317 15.9596ZM23.9466 0.666656H19.44C17.56 0.666656 16.0533 2.19999 16.0533 4.08132V8.62666C16.0533 10.52 17.56 12.04 19.44 12.04H23.9466C25.8133 12.04 27.3333 10.52 27.3333 8.62666V4.08132C27.3333 2.19999 25.8133 0.666656 23.9466 0.666656ZM19.44 15.9596H23.9466C25.8133 15.9596 27.3333 17.4809 27.3333 19.3743V23.9196C27.3333 25.7996 25.8133 27.3329 23.9466 27.3329H19.44C17.56 27.3329 16.0533 25.7996 16.0533 23.9196V19.3743C16.0533 17.4809 17.56 15.9596 19.44 15.9596Z" fill="#F7F6F6"/>
</svg>
