<svg width="28" height="25" viewBox="0 0 28 25" fill="none" xmlns="http://www.w3.org/2000/svg">
<path fill-rule="evenodd" clip-rule="evenodd" d="M20.5857 0.333496C22.3737 0.333496 24.0937 1.04016 25.359 2.30816C26.6257 3.5735 27.3337 5.28016 27.3337 7.06683V17.6002C27.3337 21.3202 24.307 24.3335 20.5857 24.3335H7.41366C3.69233 24.3335 0.666992 21.3202 0.666992 17.6002V7.06683C0.666992 3.34683 3.67899 0.333496 7.41366 0.333496H20.5857ZM22.707 9.05349L22.8137 8.94683C23.1323 8.56016 23.1323 8.00016 22.799 7.61349C22.6137 7.41483 22.359 7.29349 22.0937 7.26683C21.8137 7.25216 21.547 7.34683 21.3457 7.53349L15.3337 12.3335C14.5603 12.9748 13.4523 12.9748 12.667 12.3335L6.66699 7.53349C6.25232 7.22683 5.67899 7.26683 5.33366 7.62683C4.97366 7.98683 4.93366 8.56016 5.23899 8.96016L5.41366 9.13349L11.4803 13.8668C12.227 14.4535 13.1323 14.7735 14.0803 14.7735C15.0257 14.7735 15.947 14.4535 16.6923 13.8668L22.707 9.05349Z" fill="white"/>
</svg>
