<svg width="26" height="26" viewBox="0 0 26 26" fill="none" xmlns="http://www.w3.org/2000/svg">
<path fill-rule="evenodd" clip-rule="evenodd" d="M6.929 0H19.0697C23.491 0 25.987 2.5077 26 6.929V19.071C26 23.491 23.491 26 19.0697 26H6.929C2.5077 26 0 23.491 0 19.071V6.929C0 2.5077 2.5077 0 6.929 0ZM13.0637 20.618C13.624 20.618 14.0907 20.202 14.1427 19.643V6.396C14.1947 5.993 14.001 5.5887 13.65 5.369C13.2847 5.148 12.8427 5.148 12.493 5.369C12.1407 5.5887 11.947 5.993 11.9847 6.396V19.643C12.051 20.202 12.5177 20.618 13.0637 20.618ZM19.045 20.618C19.591 20.618 20.0577 20.202 20.124 19.643V15.379C20.1617 14.9617 19.968 14.573 19.6157 14.352C19.266 14.131 18.824 14.131 18.46 14.352C18.1077 14.573 17.914 14.9617 17.966 15.379V19.643C18.018 20.202 18.4847 20.618 19.045 20.618ZM8.08467 19.643C8.03267 20.202 7.56597 20.618 7.00567 20.618C6.44667 20.618 5.97867 20.202 5.92797 19.643V10.66C5.88897 10.2557 6.08267 9.854 6.43497 9.633C6.78467 9.412 7.22797 9.412 7.57897 9.633C7.92867 9.854 8.12497 10.2557 8.08467 10.66V19.643Z" fill="white"/>
</svg>
